<?xml version="1.0" encoding="utf-8"?><svg xml:space="preserve" viewBox="0 0 100 100" y="0" x="0" xmlns="http://www.w3.org/2000/svg" id="Layer_1" version="1.1" width="200px" height="200px" xmlns:xlink="http://www.w3.org/1999/xlink" style="width:100%;height:100%;background-size:initial;background-repeat-y:initial;background-repeat-x:initial;background-position-y:initial;background-position-x:initial;background-origin:initial;background-color:initial;background-clip:initial;background-attachment:initial;animation-play-state:paused" ><g class="ldl-scale" style="transform-origin:50% 50%;transform:rotate(0deg) scale(0.8, 0.8);animation-play-state:paused" ><path stroke-miterlimit="10" stroke-width="3.5" stroke="#333" fill="#666766" stroke-linejoin="round" d="M81.116 28.727h-8.83l-3.606-9.281a7.684 7.684 0 0 0-7.163-4.901H48.613a7.684 7.684 0 0 0-7.163 4.901l-3.606 9.281h-18.96A7.884 7.884 0 0 0 11 36.611V77.57a7.884 7.884 0 0 0 7.884 7.884h62.231a7.884 7.884 0 0 0 7.884-7.884V36.611a7.883 7.883 0 0 0-7.883-7.884z" style="stroke:rgb(255, 255, 255);fill:rgb(67, 121, 189);animation-play-state:paused" ></path>
<path d="M17 50.25v1.25" stroke-miterlimit="10" stroke-width="3.5" stroke-linejoin="round" stroke="#fff" fill="none" stroke-linecap="round" style="stroke:rgb(186, 216, 253);animation-play-state:paused" ></path>
<path stroke-miterlimit="10" stroke-width="3.5" stroke-linejoin="round" stroke="#fff" fill="none" stroke-linecap="round" d="M23.173 34.727h-1.412A4.76 4.76 0 0 0 17 39.488v4.761" style="stroke:rgb(186, 216, 253);animation-play-state:paused" ></path>
<path d="M25.688 41.896v32.416" stroke-miterlimit="10" stroke-linecap="round" stroke-width="3.5" stroke="#333" stroke-linejoin="round" fill="none" style="stroke:rgb(255, 255, 255);animation-play-state:paused" ></path>
<path stroke-linejoin="round" stroke="#333" stroke-linecap="round" fill="#333" stroke-miterlimit="10" stroke-width="3.5" d="M31.766 28.727H17.584v-3.039a3.04 3.04 0 0 1 3.039-3.039h8.104a3.04 3.04 0 0 1 3.039 3.039v3.039z" style="stroke:rgb(255, 255, 255);fill:rgb(255, 255, 255);animation-play-state:paused" ></path>
<circle stroke-miterlimit="10" stroke-width="3.5" stroke="#333" fill="#666766" stroke-linejoin="round" r="21.273" cy="57.091" cx="55.065" style="stroke:rgb(255, 255, 255);fill:rgb(67, 121, 189);animation-play-state:paused" ></circle>
<path d="M48.987 28.727h13.169" stroke-miterlimit="10" stroke-linecap="round" stroke-width="3.5" stroke="#333" stroke-linejoin="round" fill="none" style="stroke:rgb(255, 255, 255);animation-play-state:paused" ></path>
<circle fill="#f0af6b" r="3.039" cy="37.844" cx="78.364" style="fill:rgb(255, 197, 19);animation-play-state:paused" ></circle>
<path fill="#333" d="M76 50.091c-.287 0-.567.022-.845.056a21.205 21.205 0 0 1 1.183 6.944c0 2.435-.429 4.765-1.183 6.944.278.033.558.056.845.056a7 7 0 1 0 0-14z" style="fill:rgb(255, 255, 255);animation-play-state:paused" ></path>
<path stroke-miterlimit="10" stroke-width="3.5" stroke="#000" stroke-linejoin="round" opacity=".2" d="M81.116 28.727h-8.83l-3.606-9.281a7.684 7.684 0 0 0-7.163-4.901H57v70.909h24.116A7.884 7.884 0 0 0 89 77.57V36.611a7.884 7.884 0 0 0-7.884-7.884z" style="stroke:rgb(179, 183, 226);fill:rgb(179, 183, 226);animation-play-state:paused" ></path>
<circle stroke-miterlimit="10" stroke-linejoin="round" stroke-width="3.5" stroke="#333" fill="#e0e0e0" r="14.688" cy="57.091" cx="55.065" style="stroke:rgb(255, 255, 255);fill:rgb(76, 76, 76);animation-play-state:paused" ></circle>
<path stroke-miterlimit="10" stroke-width="3.5" stroke-linejoin="round" stroke="#fff" fill="none" stroke-linecap="round" d="M49.998 50.266a8.457 8.457 0 0 1 3.233-1.476" style="stroke:rgb(186, 216, 253);animation-play-state:paused" ></path>
<path stroke-miterlimit="10" stroke-width="3.5" stroke-linejoin="round" stroke="#fff" fill="none" stroke-linecap="round" d="M47.007 54.377c.044-.131.091-.26.141-.387" style="stroke:rgb(186, 216, 253);animation-play-state:paused" ></path>
<path fill="#f3e4c7" opacity=".3" d="M65.853 47.147L45.121 67.879a14.678 14.678 0 0 0 4.13 2.699l19.302-19.302a14.712 14.712 0 0 0-2.7-4.129z" style="fill:rgb(94, 111, 163);animation-play-state:paused" ></path>
<path fill="#f3e4c7" opacity=".3" d="M69.318 53.597L51.571 71.344c.575.141 1.161.254 1.761.325l16.31-16.31a14.56 14.56 0 0 0-.324-1.762z" style="fill:rgb(94, 111, 163);animation-play-state:paused" ></path>
<metadata xmlns:d="https://loading.io/stock/" style="animation-play-state:paused" ><d:name style="animation-play-state:paused" >camera</d:name>


<d:tags style="animation-play-state:paused" >camera,photographer,documentary,film,record,image</d:tags>


<d:license style="animation-play-state:paused" >by</d:license>


<d:slug style="animation-play-state:paused" >jq6h5j</d:slug></metadata></g><!-- generated by https://loading.io/ --></svg>