<?xml version="1.0" encoding="utf-8"?>
<!-- Generator: Adobe Illustrator 19.0.0, SVG Export Plug-In . SVG Version: 6.00 Build 0)  -->
<svg version="1.1" id="Layer_1" xmlns="http://www.w3.org/2000/svg" xmlns:xlink="http://www.w3.org/1999/xlink" x="0px" y="0px"
	 viewBox="0 0 300 300" style="enable-background:new 0 0 300 300;" xml:space="preserve">
<style type="text/css">
	.st0{display:none;fill:url(#XMLID_7_);}
	.st1{display:none;}
	.st2{display:inline;fill:none;}
	.st3{display:inline;}
	.st4{fill:#FFD85C;}
	.st5{fill:url(#XMLID_8_);}
</style>
<linearGradient id="XMLID_7_" gradientUnits="userSpaceOnUse" x1="88.4654" y1="217.5346" x2="216.7346" y2="89.2654">
	<stop  offset="0" style="stop-color:#FFD12B"/>
	<stop  offset="0.1406" style="stop-color:#FFD231"/>
	<stop  offset="0.2848" style="stop-color:#FFD540"/>
	<stop  offset="0.4306" style="stop-color:#FEDA58"/>
	<stop  offset="0.5776" style="stop-color:#FCE275"/>
	<stop  offset="0.7241" style="stop-color:#FAED94"/>
	<stop  offset="0.7742" style="stop-color:#FAF2A1"/>
	<stop  offset="1" style="stop-color:#FEFBEA"/>
</linearGradient>
<circle id="XMLID_1_" class="st0" cx="152.6" cy="153.4" r="90.7"/>
<g id="XMLID_2_" class="st1">
	<line id="XMLID_19_" class="st2" x1="152" y1="14" x2="152" y2="47.2"/>
	<g id="XMLID_14_" class="st3">
		<path id="XMLID_18_" class="st4" d="M143.9,14c0,11.1,0,22.1,0,33.2c0,10.4,16.2,10.4,16.2,0c0-11.1,0-22.1,0-33.2
			C160.1,3.6,143.9,3.6,143.9,14L143.9,14z"/>
	</g>
</g>
<g id="XMLID_13_" class="st1">
	<line id="XMLID_35_" class="st2" x1="13.5" y1="154.6" x2="46.6" y2="154.6"/>
	<g id="XMLID_30_" class="st3">
		<path id="XMLID_34_" class="st4" d="M13.5,162.7c11.1,0,22.1,0,33.2,0c10.4,0,10.4-16.2,0-16.2c-11.1,0-22.1,0-33.2,0
			C3,146.5,3,162.7,13.5,162.7L13.5,162.7z"/>
	</g>
</g>
<g id="XMLID_20_" class="st1">
	<line id="XMLID_28_" class="st2" x1="253.3" y1="154.6" x2="286.4" y2="154.6"/>
	<g id="XMLID_22_" class="st3">
		<path id="XMLID_27_" class="st4" d="M253.3,162.7c11.1,0,22.1,0,33.2,0c10.4,0,10.4-16.2,0-16.2c-11.1,0-22.1,0-33.2,0
			C242.9,146.5,242.8,162.7,253.3,162.7L253.3,162.7z"/>
	</g>
</g>
<g id="XMLID_4_" class="st1">
	<line id="XMLID_12_" class="st2" x1="152" y1="251.8" x2="152" y2="285.1"/>
	<g id="XMLID_6_" class="st3">
		<path id="XMLID_11_" class="st4" d="M143.9,251.8c0,11.1,0,22.1,0,33.2c0,10.4,16.2,10.4,16.2,0c0-11.1,0-22.1,0-33.2
			C160.1,241.4,143.9,241.4,143.9,251.8L143.9,251.8z"/>
	</g>
</g>
<g id="XMLID_59_" class="st1">
	<line id="XMLID_66_" class="st2" x1="39" y1="55.9" x2="67.1" y2="79.1"/>
	<g id="XMLID_61_" class="st3">
		<path id="XMLID_65_" class="st4" d="M33.3,61.6c9.3,7.8,18.6,15.5,28,23.2c8,6.6,19.4-4.7,11.5-11.5c-9.3-7.7-18.6-15.5-28-23.2
			C36.8,43.5,25.4,54.9,33.3,61.6L33.3,61.6z"/>
	</g>
</g>
<g id="XMLID_51_" class="st1">
	<line id="XMLID_58_" class="st2" x1="50.6" y1="263.6" x2="76.3" y2="237.5"/>
	<g id="XMLID_53_" class="st3">
		<path id="XMLID_57_" class="st4" d="M56.4,269.4c8.5-8.8,17-17.4,25.7-26.2c7.3-7.4-4.2-18.9-11.5-11.5
			c-8.5,8.8-17,17.4-25.7,26.2C37.7,265.3,49.1,276.8,56.4,269.4L56.4,269.4z"/>
	</g>
</g>
<g id="XMLID_43_" class="st1">
	<line id="XMLID_69_" class="st2" x1="235.8" y1="74.5" x2="261.4" y2="48.3"/>
	<g id="XMLID_50_" class="st3">
		<path id="XMLID_68_" class="st4" d="M241.6,80.2c8.5-8.8,17-17.4,25.7-26.2c7.3-7.4-4.2-18.9-11.5-11.5
			c-8.5,8.8-17,17.4-25.7,26.2C222.8,76.3,234.3,87.6,241.6,80.2L241.6,80.2z"/>
	</g>
</g>
<g id="XMLID_29_" class="st1">
	<line id="XMLID_75_" class="st2" x1="239.7" y1="222.5" x2="267.6" y2="245.9"/>
	<g id="XMLID_70_" class="st3">
		<path id="XMLID_74_" class="st4" d="M233.9,228.3c9.3,7.7,18.6,15.5,28,23.2c8,6.6,19.4-4.7,11.5-11.5c-9.3-7.7-18.6-15.5-28-23.2
			C237.4,210.2,225.9,221.6,233.9,228.3L233.9,228.3z"/>
	</g>
</g>
<g id="Layer_1_1_" class="st1">
</g>
<g id="Layer_2">
	<linearGradient id="XMLID_8_" gradientUnits="userSpaceOnUse" x1="57.2486" y1="267.2752" x2="263.2513" y2="61.2726">
		<stop  offset="0" style="stop-color:#A4DDED"/>
		<stop  offset="1" style="stop-color:#FFFFFF"/>
	</linearGradient>
	<path id="XMLID_3_" class="st5" d="M143.6,3.7c0,0,122.9-1.5,146.7,125.7c21,143-169,236.2-262.8,104.7
		c119.2,12.4,142.4-56.3,148.9-68.7C182.6,153.2,217.3,91.7,143.6,3.7z"/>
</g>
</svg>
