<?xml version="1.0" encoding="utf-8"?>
<svg viewBox="433.573 0 263.914 240.036" xmlns="http://www.w3.org/2000/svg" fill="white">
  <path d="M 565.53 70.249 C 537.737 70.249 515.132 92.854 515.132 120.647 C 515.132 148.44 537.745 171.045 565.53 171.045 C 593.319 171.045 615.928 148.44 615.928 120.647 C 615.932 92.854 593.323 70.249 565.53 70.249 L 565.53 70.249 Z M 565.53 148.647 C 550.092 148.647 537.53 136.085 537.53 120.647 C 537.53 105.209 550.092 92.647 565.53 92.647 C 580.96 92.647 593.53 105.209 593.53 120.647 C 593.53 136.088 580.964 148.647 565.53 148.647 Z M 671.93 25.447 L 565.53 25.447 C 559.342 25.447 554.331 30.467 554.331 36.646 C 554.331 42.83 559.35 47.845 565.53 47.845 L 671.93 47.845 L 671.93 193.445 L 642.965 193.445 L 646.246 190.164 C 650.621 185.789 650.621 178.699 646.246 174.328 C 641.871 169.953 634.773 169.953 630.41 174.328 L 608.012 196.726 C 603.637 201.101 603.637 208.191 608.012 212.562 L 630.41 234.96 C 632.601 237.152 635.461 238.241 638.328 238.241 C 641.195 238.241 644.058 237.148 646.246 234.96 C 650.621 230.585 650.621 223.495 646.246 219.124 L 642.965 215.843 L 671.93 215.843 C 684.278 215.843 694.328 205.796 694.328 193.445 L 694.328 47.845 C 694.328 35.493 684.277 25.447 671.93 25.447 L 671.93 25.447 Z M 565.53 193.447 L 459.13 193.447 L 459.13 47.847 L 488.095 47.847 L 484.813 51.129 C 480.438 55.504 480.438 62.594 484.813 66.965 C 486.997 69.156 489.864 70.246 492.731 70.246 C 495.599 70.246 498.466 69.152 500.649 66.965 L 523.047 44.567 C 527.422 40.192 527.422 33.102 523.047 28.731 L 500.649 6.333 C 496.282 1.958 489.18 1.958 484.813 6.333 C 480.438 10.708 480.438 17.798 484.813 22.169 L 488.095 25.45 L 459.13 25.45 C 446.775 25.45 436.732 35.497 436.732 47.848 L 436.732 193.448 C 436.732 205.803 446.779 215.846 459.13 215.846 L 565.53 215.846 C 571.705 215.846 576.729 210.826 576.729 204.647 C 576.729 198.467 571.713 193.448 565.53 193.448 L 565.53 193.447 Z"/>
</svg>